<svg xmlns="http://www.w3.org/2000/svg" width="35" height="35" viewBox="0 0 35 35"><g transform="translate(-319 -25)"><circle cx="17.5" cy="17.5" r="17.5" transform="translate(319 25)" fill="#eaf0fc"/><path d="M1437.96,1274.734l-1.822-15.026a.911.911,0,0,0-.9-.8H1432.5V1258a4.1,4.1,0,1,0-8.2,0v.911h-2.732a.911.911,0,0,0-.9.8l-1.821,15.026a.91.91,0,0,0,.9,1.02h17.3a.911.911,0,0,0,.9-1.02ZM1426.128,1258a2.277,2.277,0,0,1,4.554,0v.911h-4.554Zm-5.347,15.937,1.6-13.205h1.925v1.821a.911.911,0,1,0,1.821,0v-1.821h4.554v1.821a.911.911,0,1,0,1.821,0v-1.821h1.925l1.6,13.205Z" transform="translate(-1091.904 -1223.826)" fill="#9da9b9"/></g></svg>