<svg xmlns="http://www.w3.org/2000/svg" width="40" height="41.226" viewBox="0 0 40 41.226"><g transform="translate(-783.285 1242.692)"><g transform="translate(783.285 -1242.692)"><path d="M823.04-1230.721l-7.561-11.586a.626.626,0,0,0-.525-.285h-23.2a.628.628,0,0,0-.522.279l-7.745,11.6a.632.632,0,0,0-.1.414.621.621,0,0,0,.1.383l19.147,28.049a.608.608,0,0,0,.516.252h0a.608.608,0,0,0,.516-.25l19.359-28.038a.628.628,0,0,0,.1-.4A.628.628,0,0,0,823.04-1230.721Zm-1.6-.161H812.9l-4.621-10.454h6.339Zm-25.493,1.254H811.53l-8.333,24.136Zm.02-1.254,4.28-10.454H806.9l4.622,10.454Zm-3.874-10.454h6.8l-4.282,10.454h-9.493Zm2.548,11.708,7.436,24.733L785.2-1229.628Zm9.729,24.575,8.49-24.575h8.464Z" transform="translate(-783.262 1242.715)" fill="#4043ff"/><path d="M803.179-1201.466a.72.72,0,0,1-.609-.3l-19.16-28.068a.714.714,0,0,1-.12-.45.707.707,0,0,1,.117-.469l7.75-11.612a.735.735,0,0,1,.613-.328h23.215a.736.736,0,0,1,.617.334l7.566,11.594a.727.727,0,0,1,.111.491.709.709,0,0,1-.122.452l-19.372,28.058A.718.718,0,0,1,803.179-1201.466Zm-11.41-41.008a.518.518,0,0,0-.431.232l-7.75,11.611a.5.5,0,0,0-.081.342.53.53,0,0,0,.083.332l19.16,28.069a.5.5,0,0,0,.427.2.5.5,0,0,0,.429-.2l19.372-28.057a.511.511,0,0,0,.084-.333.549.549,0,0,0-.078-.368l-7.566-11.593a.516.516,0,0,0-.434-.236Zm10.633,38.258-.4-.584-17-24.919h9.735l.023.078ZM785.414-1229.5l16.372,23.994-7.215-23.994Zm18.61,25.2,8.783-25.421h8.755l-.118.171Zm8.939-25.2-8.21,23.76,16.392-23.76Zm-9.752,24.4-.1-.324-7.3-24.292h15.9Zm-7.1-24.4,7.12,23.686L811.4-1229.5Zm25.566-1.255h-8.82l-4.72-10.679h6.57l.033.049Zm-8.677-.218h8.274l-6.685-10.243h-6.117Zm-1.275.218h-15.9l4.372-10.679H807Zm-15.577-.218h15.243l-4.53-10.243h-6.521Zm-1.448.218h-9.777l.114-.17,7.014-10.509h7.024Zm-9.37-.218h9.223l4.194-10.243h-6.581Z" transform="translate(-783.285 1242.692)" fill="#4043ff"/></g></g></svg>