<svg xmlns="http://www.w3.org/2000/svg" width="40" height="40" viewBox="0 0 40 40"><g transform="translate(-854.124 1252.175)"><path d="M891.808-1240.385H880.65v-7.79a4,4,0,0,0-4-4H858.124a4,4,0,0,0-4,4v32a4,4,0,0,0,4,4H876.65a4,4,0,0,0,4-4v-7.79h11.158a2.318,2.318,0,0,0,2.316-2.316v-11.79A2.318,2.318,0,0,0,891.808-1240.385Zm1.053,2.316v1.053H870.545v-2.105h21.263A1.053,1.053,0,0,1,892.861-1238.07Zm-37.474-10.105a2.74,2.74,0,0,1,2.737-2.737H876.65a2.74,2.74,0,0,1,2.737,2.737v1.053h-24Zm24,32a2.74,2.74,0,0,1-2.737,2.737H858.124a2.74,2.74,0,0,1-2.737-2.737v-1.053h24Zm0-2.316h-24v-27.369h24v5.474h-8.842v-1.895a.632.632,0,0,0-.632-.632.632.632,0,0,0-.632.632v20.21a.632.632,0,0,0,.632.632.632.632,0,0,0,.632-.632v-1.895h8.842Zm12.421-6.737H870.545v-10.526h22.316v9.474A1.054,1.054,0,0,1,891.808-1225.228Z" fill="#4043ff"/><path d="M893.966-1228.175a2.281,2.281,0,0,0-1.252.385,2.3,2.3,0,0,0-1.274-.385,2.318,2.318,0,0,0-2.316,2.316,2.318,2.318,0,0,0,2.316,2.316,2.3,2.3,0,0,0,1.274-.386,2.275,2.275,0,0,0,1.252.386,2.318,2.318,0,0,0,2.316-2.316A2.318,2.318,0,0,0,893.966-1228.175Zm-3.579,2.316a1.053,1.053,0,0,1,1.053-1.053,1.054,1.054,0,0,1,1.053,1.053,1.054,1.054,0,0,1-1.053,1.053A1.054,1.054,0,0,1,890.387-1225.859Zm3.579,1.053a1.027,1.027,0,0,1-.425-.093,2.289,2.289,0,0,0,.215-.96,2.3,2.3,0,0,0-.215-.961,1.03,1.03,0,0,1,.425-.092,1.054,1.054,0,0,1,1.053,1.053A1.054,1.054,0,0,1,893.966-1224.807Z" transform="translate(-5.526 -3.789)" fill="#4043ff"/><path d="M881.808-1230.175h-5.053a.632.632,0,0,0-.632.632v3.368a.632.632,0,0,0,.632.632h5.053a.632.632,0,0,0,.632-.632v-3.368A.632.632,0,0,0,881.808-1230.175Zm-.632,3.368h-3.789v-2.105h3.789Z" transform="translate(-3.474 -3.474)" fill="#4043ff"/><path d="M867.756-1207.912h3.368a.632.632,0,0,0,.632-.632.632.632,0,0,0-.632-.632h-3.368a.632.632,0,0,0-.632.632A.632.632,0,0,0,867.756-1207.912Z" transform="translate(-2.053 -6.789)" fill="#4043ff"/></g></svg>