<svg xmlns="http://www.w3.org/2000/svg" xmlns:xlink="http://www.w3.org/1999/xlink" width="80" height="80" viewBox="0 0 80 80"><defs><filter id="a" x="0" y="0" width="80" height="80" filterUnits="userSpaceOnUse"><feOffset dy="1" input="SourceAlpha"/><feGaussianBlur stdDeviation="5" result="b"/><feFlood flood-opacity="0.161"/><feComposite operator="in" in2="b"/><feComposite in="SourceGraphic"/></filter></defs><g transform="translate(-751.758 -505.758)"><g transform="matrix(1, 0, 0, 1, 751.76, 505.76)" filter="url(#a)"><circle cx="25" cy="25" r="25" transform="translate(15 14)" fill="#f9faff"/></g><g transform="translate(782.881 535.033)"><path d="M20.693,18v9.183H6V18" transform="translate(-4.163 -8.817)" fill="none" stroke="#0076ff" stroke-linecap="round" stroke-linejoin="round" stroke-width="2"/><path d="M3,10.5H21.366v4.592H3Z" transform="translate(-3 -5.908)" fill="none" stroke="#0076ff" stroke-linecap="round" stroke-linejoin="round" stroke-width="2"/><path d="M18,24.275V10.5" transform="translate(-8.817 -5.908)" fill="none" stroke="#0076ff" stroke-linecap="round" stroke-linejoin="round" stroke-width="2"/><path d="M13.928,7.592H9.8A2.3,2.3,0,0,1,9.8,3C13.01,3,13.928,7.592,13.928,7.592Z" transform="translate(-4.745 -3)" fill="none" stroke="#0076ff" stroke-linecap="round" stroke-linejoin="round" stroke-width="2"/><path d="M18,7.592h4.132a2.3,2.3,0,1,0,0-4.592C18.918,3,18,7.592,18,7.592Z" transform="translate(-8.817 -3)" fill="none" stroke="#0076ff" stroke-linecap="round" stroke-linejoin="round" stroke-width="2"/></g></g></svg>