<svg xmlns="http://www.w3.org/2000/svg" width="40" height="40" viewBox="0 0 40 40"><g transform="translate(-852.124 1371.429)"><g transform="translate(855.492 -1371.429)"><path d="M863.492-1331.429a4,4,0,0,1-4-4v-26.947a.632.632,0,0,1,.632-.632.632.632,0,0,1,.632.632v26.947a2.74,2.74,0,0,0,2.737,2.737,2.74,2.74,0,0,0,2.737-2.737v-5.053a.633.633,0,0,1,.39-.584.629.629,0,0,1,.688.137l2.08,2.08,2.08-2.08a.631.631,0,0,1,.893,0l2.08,2.08,2.08-2.08a.631.631,0,0,1,.893,0l2.08,2.08,2.08-2.08a.631.631,0,0,1,.893,0l2.08,2.08.211-.211v-26.686a4.426,4.426,0,0,0-4.421-4.421H856.756a.632.632,0,0,1-.632-.632.632.632,0,0,1,.632-.632h23.579a5.691,5.691,0,0,1,5.684,5.684v26.947a.632.632,0,0,1-.185.447l-.842.842a.631.631,0,0,1-.893,0l-2.08-2.08-2.08,2.08a.631.631,0,0,1-.893,0l-2.08-2.08-2.08,2.08a.631.631,0,0,1-.893,0l-2.08-2.08-2.08,2.08a.631.631,0,0,1-.893,0l-1.448-1.448v3.528A4,4,0,0,1,863.492-1331.429Zm21.895-7.368h0Z" transform="translate(-856.124 1371.429)" fill="#4043ff"/></g><g transform="translate(852.124 -1371.429)"><path d="M859.492-1361.745h-6.737a.632.632,0,0,1-.632-.632v-5.053a4,4,0,0,1,4-4,4,4,0,0,1,4,4v5.053A.632.632,0,0,1,859.492-1361.745Zm-6.105-1.263h5.474v-4.421a2.74,2.74,0,0,0-2.737-2.737,2.74,2.74,0,0,0-2.737,2.737Z" transform="translate(-852.124 1371.429)" fill="#4043ff"/></g><g transform="translate(863.071 -1341.114)"><path d="M890.177-1325.745H865.756a.632.632,0,0,1-.632-.632.632.632,0,0,1,.632-.632h24.421a2.74,2.74,0,0,0,2.737-2.737v-3.528l-1.448,1.448a.631.631,0,0,1-.893,0l-2.08-2.08-2.08,2.08a.631.631,0,0,1-.893,0l-2.08-2.08-2.08,2.08a.631.631,0,0,1-.893,0l-2.08-2.08-2.08,2.08a.631.631,0,0,1-.893,0l-2.08-2.08-2.08,2.08a.631.631,0,0,1-.893,0l-1.448-1.448v3.528a.632.632,0,0,1-.632.632.632.632,0,0,1-.632-.632v-5.053a.633.633,0,0,1,.39-.584.629.629,0,0,1,.688.137l2.08,2.08,2.08-2.08a.631.631,0,0,1,.893,0l2.08,2.08,2.08-2.08a.631.631,0,0,1,.893,0l2.08,2.08,2.08-2.08a.631.631,0,0,1,.893,0l2.08,2.08,2.08-2.08a.631.631,0,0,1,.893,0l2.08,2.08,2.08-2.08a.629.629,0,0,1,.688-.137.633.633,0,0,1,.39.584v5.053A4,4,0,0,1,890.177-1325.745Z" transform="translate(-865.124 1335.43)" fill="#4043ff"/></g><g transform="translate(863.071 -1351.218)"><path d="M875.019-1346.166h-9.263a.632.632,0,0,1-.632-.632.632.632,0,0,1,.632-.632h9.263a.632.632,0,0,1,.632.632A.632.632,0,0,1,875.019-1346.166Z" transform="translate(-865.124 1347.429)" fill="#4043ff"/></g><g transform="translate(876.545 -1351.218)"><path d="M885.124-1346.166h-3.368a.632.632,0,0,1-.632-.632.632.632,0,0,1,.632-.632h3.368a.632.632,0,0,1,.632.632A.632.632,0,0,1,885.124-1346.166Z" transform="translate(-881.124 1347.429)" fill="#4043ff"/></g><g transform="translate(863.071 -1346.166)"><path d="M875.019-1340.166h-9.263a.632.632,0,0,1-.632-.632.632.632,0,0,1,.632-.632h9.263a.632.632,0,0,1,.632.632A.632.632,0,0,1,875.019-1340.166Z" transform="translate(-865.124 1341.429)" fill="#4043ff"/></g><g transform="translate(876.545 -1346.166)"><path d="M885.124-1340.166h-3.368a.632.632,0,0,1-.632-.632.632.632,0,0,1,.632-.632h3.368a.632.632,0,0,1,.632.632A.632.632,0,0,1,885.124-1340.166Z" transform="translate(-881.124 1341.429)" fill="#4043ff"/></g><g transform="translate(869.808 -1366.04)"><path d="M876.282-1359.05a3.081,3.081,0,0,1-3.158-2.99,3.081,3.081,0,0,1,3.158-2.99,3.081,3.081,0,0,1,3.158,2.99.631.631,0,0,1-.632.632.631.631,0,0,1-.632-.632,1.819,1.819,0,0,0-1.895-1.726,1.819,1.819,0,0,0-1.895,1.726,1.819,1.819,0,0,0,1.895,1.726.632.632,0,0,1,.632.631A.632.632,0,0,1,876.282-1359.05Z" transform="translate(-873.124 1365.029)" fill="#4043ff"/></g><g transform="translate(869.808 -1361.324)"><path d="M876.282-1353.45a3.081,3.081,0,0,1-3.158-2.99.632.632,0,0,1,.632-.632.632.632,0,0,1,.632.632,1.819,1.819,0,0,0,1.895,1.726,1.819,1.819,0,0,0,1.895-1.726,1.819,1.819,0,0,0-1.895-1.726.632.632,0,0,1-.632-.632.632.632,0,0,1,.632-.631,3.081,3.081,0,0,1,3.158,2.989A3.081,3.081,0,0,1,876.282-1353.45Z" transform="translate(-873.124 1359.429)" fill="#4043ff"/></g><g transform="translate(872.335 -1367.218)"><path d="M876.756-1363.987a.632.632,0,0,1-.632-.632v-1.179a.632.632,0,0,1,.632-.632.632.632,0,0,1,.632.632v1.179A.632.632,0,0,1,876.756-1363.987Z" transform="translate(-876.124 1366.429)" fill="#4043ff"/></g><g transform="translate(872.335 -1356.608)"><path d="M876.756-1351.387a.632.632,0,0,1-.632-.632v-1.179a.632.632,0,0,1,.632-.632.632.632,0,0,1,.632.632v1.179A.632.632,0,0,1,876.756-1351.387Z" transform="translate(-876.124 1353.829)" fill="#4043ff"/></g></g></svg>