<svg xmlns="http://www.w3.org/2000/svg" width="47.802" height="14.339" viewBox="0 0 47.802 14.339"><g transform="translate(-29.596 -2062.092)"><path d="M181.534,2069.622a1.164,1.164,0,0,1,.448.086,1.151,1.151,0,0,1,.617.621,1.192,1.192,0,0,1,0,.885,1.067,1.067,0,0,1-.247.366,1.2,1.2,0,0,1-.38.255,1.128,1.128,0,0,1-.439.088,1.11,1.11,0,0,1-.439-.087,1.2,1.2,0,0,1-.623-.625,1.141,1.141,0,0,1-.086-.438,1.12,1.12,0,0,1,.089-.438,1.184,1.184,0,0,1,.255-.381,1.084,1.084,0,0,1,.364-.246,1.141,1.141,0,0,1,.44-.085m1.025,1.156a1.048,1.048,0,0,0-.075-.4.982.982,0,0,0-.216-.329,1.03,1.03,0,0,0-.733-.3,1.015,1.015,0,0,0-.387.074,1,1,0,0,0-.327.22,1.086,1.086,0,0,0-.228.339,1,1,0,0,0,0,.777,1.033,1.033,0,0,0,.224.332,1.02,1.02,0,0,0,.332.223.982.982,0,0,0,.388.078,1.018,1.018,0,0,0,.393-.079,1.06,1.06,0,0,0,.34-.226.941.941,0,0,0,.217-.32,1.023,1.023,0,0,0,.074-.393m-.99-.687a.763.763,0,0,1,.413.089.309.309,0,0,1,.134.277.334.334,0,0,1-.085.233.359.359,0,0,1-.228.115l.3.61h-.228l-.279-.582h-.309v.582h-.2v-1.325Zm-.038.135h-.248v.476h.248a.6.6,0,0,0,.295-.052.194.194,0,0,0,.085-.178.207.207,0,0,0-.09-.188.561.561,0,0,0-.29-.057" transform="translate(-105.286 -5.307)" fill="#161615"/><path d="M31.527,2071.3a3.813,3.813,0,0,0,.974,2.777,3.613,3.613,0,0,0,2.708,1,3.733,3.733,0,0,0,2.74-1.031,3.638,3.638,0,0,0,1.045-2.709,3.923,3.923,0,0,0-1-2.862,3.677,3.677,0,0,0-2.766-1.028,3.591,3.591,0,0,0-2.711,1.021,3.913,3.913,0,0,0-.99,2.833m25.9-.8h6.688v-.134a2.766,2.766,0,0,0-.883-2.18,3.579,3.579,0,0,0-2.454-.784,3.349,3.349,0,0,0-2.364.835,3.171,3.171,0,0,0-.987,2.262m8.234,2.666v-1.472H57.349a3.455,3.455,0,0,0,.945,2.533,4.238,4.238,0,0,0,4.62.378,2.046,2.046,0,0,0,.922-1.439Zm0,3.031v-2.311A3.274,3.274,0,0,1,64.3,2075.6a6.609,6.609,0,0,1-3.565.809,5.429,5.429,0,0,1-3.886-1.338,4.831,4.831,0,0,1-1.412-3.681,5.17,5.17,0,0,1,1.2-3.538H56.5a4.163,4.163,0,0,0-2.941.887,3.717,3.717,0,0,0-.939,2.813v4.637h-1.9v-4.5h-8.5a3.455,3.455,0,0,0,.945,2.533,4.238,4.238,0,0,0,4.62.378,2.046,2.046,0,0,0,.922-1.439h2.006a3.42,3.42,0,0,1-1.542,2.441,6.612,6.612,0,0,1-3.565.809,5.428,5.428,0,0,1-3.886-1.338,4.271,4.271,0,0,1-1-1.435q0,.741.041,1.3c.029.434.071.855.13,1.256h-1.9l-.143-1.51A4.615,4.615,0,0,1,37.114,2076a5.722,5.722,0,0,1-2.295.431,5.173,5.173,0,0,1-3.8-1.4,5.068,5.068,0,0,1-1.419-3.772,4.96,4.96,0,0,1,1.441-3.736,5.283,5.283,0,0,1,3.838-1.4,5.864,5.864,0,0,1,2.185.391,5.543,5.543,0,0,1,1.812,1.195v-5.619h1.854v7.028a4.581,4.581,0,0,1,1.082-1.573,5.652,5.652,0,0,1,4.058-1.423,5.054,5.054,0,0,1,3.733,1.308,4.317,4.317,0,0,1,1.123,2.075q0-.689-.041-1.418c-.029-.558-.071-1.133-.13-1.727h1.922l.094,1.834a3.45,3.45,0,0,1,1.5-1.56,5.328,5.328,0,0,1,2.5-.512h.35v1.442l.02-.02a5.651,5.651,0,0,1,4.058-1.423,5.055,5.055,0,0,1,3.734,1.308,4.124,4.124,0,0,1,.932,1.46v-6.8h1.873v8.23l5.058-3.959h2.474l-5.393,4.207,6.231,5.622H73.2l-5.668-5.44v5.44ZM42.3,2070.5h6.688v-.134a2.767,2.767,0,0,0-.883-2.18,3.579,3.579,0,0,0-2.454-.784,3.345,3.345,0,0,0-2.363.835,3.169,3.169,0,0,0-.987,2.262" fill="#161615"/></g></svg>