<svg xmlns="http://www.w3.org/2000/svg" width="39.182" height="39.182" viewBox="0 0 39.182 39.182"><path d="M95.648,249.646a16.909,16.909,0,1,1-16.909,16.908,16.928,16.928,0,0,1,16.909-16.908m0-2.683a19.591,19.591,0,1,0,19.591,19.591,19.592,19.592,0,0,0-19.591-19.591Z" transform="translate(-76.057 -246.963)" fill="#35495e"/><path d="M102.585,258.009a5.5,5.5,0,0,0-1.678-3.542,5.748,5.748,0,0,0-3.8-1.545,74.684,74.684,0,0,0-10.265.116,5.235,5.235,0,0,0-4.488,4.029c-.495,1.767-.4,9.9-.108,11.651a5.252,5.252,0,0,0,4.168,4.525c1.637.423,9.682.369,11.487.076a5.258,5.258,0,0,0,4.546-4.149C102.918,267.355,102.752,259.644,102.585,258.009Zm-1.91,10.37a3.512,3.512,0,0,1-3.3,3.133c-1.674.184-9.15.285-10.7-.149a3.4,3.4,0,0,1-2.58-2.932,69.252,69.252,0,0,1,0-10.471,3.508,3.508,0,0,1,3.289-3.122,73.425,73.425,0,0,1,10.215.041,3.515,3.515,0,0,1,3.129,3.309A74.462,74.462,0,0,1,100.676,268.379Zm-8.3-10.522A5.321,5.321,0,1,0,97.7,263.18,5.321,5.321,0,0,0,92.38,257.857Zm-.036,8.758a3.441,3.441,0,1,1,3.471-3.409A3.44,3.44,0,0,1,92.344,266.615Zm6.81-8.959a1.246,1.246,0,1,1-1.243-1.249A1.246,1.246,0,0,1,99.154,257.655Z" transform="translate(-72.58 -243.546)" fill="#35495e"/><path d="M102.585,258.009a5.5,5.5,0,0,0-1.678-3.542,5.748,5.748,0,0,0-3.8-1.545,74.684,74.684,0,0,0-10.265.116,5.235,5.235,0,0,0-4.488,4.029c-.495,1.767-.4,9.9-.108,11.651a5.252,5.252,0,0,0,4.168,4.525c1.637.423,9.682.369,11.487.076a5.258,5.258,0,0,0,4.546-4.149C102.918,267.355,102.752,259.644,102.585,258.009Zm-1.91,10.37a3.512,3.512,0,0,1-3.3,3.133c-1.674.184-9.15.285-10.7-.149a3.4,3.4,0,0,1-2.58-2.932,69.252,69.252,0,0,1,0-10.471,3.508,3.508,0,0,1,3.289-3.122,73.425,73.425,0,0,1,10.215.041,3.515,3.515,0,0,1,3.129,3.309A74.462,74.462,0,0,1,100.676,268.379Zm-8.3-10.522A5.321,5.321,0,1,0,97.7,263.18,5.321,5.321,0,0,0,92.38,257.857Zm-.036,8.758a3.441,3.441,0,1,1,3.471-3.409A3.44,3.44,0,0,1,92.344,266.615Zm6.81-8.959a1.246,1.246,0,1,1-1.243-1.249A1.246,1.246,0,0,1,99.154,257.655Z" transform="translate(-72.58 -243.546)" fill="#35495e"/></svg>