<svg xmlns="http://www.w3.org/2000/svg" width="135.472" height="28.393" viewBox="0 0 135.472 28.393"><path d="M112.33,27.737a8.929,8.929,0,0,1-4.694-4.8,2.442,2.442,0,0,1-.327-1.092,7.569,7.569,0,0,1-.327-2.184V14.087a2.943,2.943,0,0,1-.764.874,9.3,9.3,0,0,1-2.729,1.856,7.059,7.059,0,0,1-1.419.437,4.819,4.819,0,0,1-1.856.218H87.331v10.92h-6.55V9.828h-6.55V8.736a2.4,2.4,0,0,0-.109-.874,2.9,2.9,0,0,0-.546-.655l-.655-.437-.764-.218H67.572v21.84H61.132V0H72.048a7.289,7.289,0,0,1,3.275.655,8.44,8.44,0,0,1,2.838,1.856,8.541,8.541,0,0,1,1.856,2.839,18.821,18.821,0,0,1,.764,2.293V0H100.1c.655,0,1.2.109,1.747.109a14.341,14.341,0,0,1,1.637.546,9.656,9.656,0,0,1,2.838,1.856A8.745,8.745,0,0,1,107.963,4.8,9.956,9.956,0,0,1,109.6,2.512,8.537,8.537,0,0,1,112.439.655a4.573,4.573,0,0,1,1.637-.437A8.481,8.481,0,0,1,115.823,0h11.026a7.62,7.62,0,0,1,3.275.655,9.656,9.656,0,0,1,2.838,1.856,8.54,8.54,0,0,1,1.856,2.839,9.612,9.612,0,0,1,.546,1.638,8.83,8.83,0,0,1,.109,1.747v8.736H113.64v2.184a2.133,2.133,0,0,0,.109.764c.109.218.327.437.546.764l.655.437.764.218h19.65v6.552h-19.65a8.135,8.135,0,0,1-3.384-.655ZM8.624,17.472a8.481,8.481,0,0,1-1.747-.218,9.092,9.092,0,0,1-1.637-.437,8.662,8.662,0,0,1-2.729-1.856A12.124,12.124,0,0,1,.655,12.012,8.766,8.766,0,0,1,0,8.736,8.83,8.83,0,0,1,.109,6.989c.109-.437.218-.983.437-1.638A14.784,14.784,0,0,1,2.511,2.512,11.54,11.54,0,0,1,5.349.655,8.351,8.351,0,0,1,8.624,0H52.4V6.552H41.482v21.84h-6.55V6.552H8.624a1.039,1.039,0,0,0-.764.218,1.759,1.759,0,0,0-.764.437l-.437.655-.109.874a.959.959,0,0,0,.109.764,1.76,1.76,0,0,0,.437.764l.764.437.764.218H21.069a8.82,8.82,0,0,1,1.747.109,9.092,9.092,0,0,1,1.637.437,11.1,11.1,0,0,1,2.838,1.966,9.5,9.5,0,0,1,1.965,2.839,8.51,8.51,0,0,1,.655,3.385,8.9,8.9,0,0,1-.655,3.385A6.758,6.758,0,0,1,27.4,25.881a7.5,7.5,0,0,1-2.838,1.856,8.893,8.893,0,0,1-3.384.655H0V21.84H21.069a2.056,2.056,0,0,0,.873-.218,2.284,2.284,0,0,0,.655-.437,4.623,4.623,0,0,0,.546-.764l.109-.764c0-.328-.109-.655-.109-.874-.109-.218-.327-.437-.437-.655a1.958,1.958,0,0,0-.764-.546l-.873-.109ZM87.331,10.92H100.54l.764-.218a6.26,6.26,0,0,0,.764-.437c.109-.218.437-.328.437-.655l.328-.874-.218-.764c0-.328-.218-.546-.546-.764l-.655-.437-.873-.218H87.331ZM53.49,28.393V0h6.55V28.393ZM129.359,10.92V8.736c0-.328-.109-.546-.109-.874a2.9,2.9,0,0,0-.546-.655l-.655-.437-.764-.218H116.26a1.551,1.551,0,0,0-.655.218l-.764.546a3.462,3.462,0,0,0-.546.655l-.218.764V10.92Z" transform="translate(0)" fill="#fff"/></svg>