<svg xmlns="http://www.w3.org/2000/svg" width="39.182" height="39.182" viewBox="0 0 39.182 39.182"><path d="M40.068,249.646a16.909,16.909,0,1,1-16.909,16.908,16.928,16.928,0,0,1,16.909-16.908m0-2.683a19.591,19.591,0,1,0,19.591,19.591,19.592,19.592,0,0,0-19.591-19.591Z" transform="translate(-20.477 -246.963)" fill="#35495e"/><path d="M37.963,256.166c.712-.024,1.423,0,2.138-.006H40.4v-3.706c-.382-.038-.78-.094-1.178-.113-.731-.033-1.463-.07-2.2-.052a5.385,5.385,0,0,0-3.1.957,4.632,4.632,0,0,0-1.861,3.094,10.9,10.9,0,0,0-.13,1.591c-.021.832,0,1.664,0,2.5v.311H28.385v4.141h3.526v10.406h4.309V264.9h3.514c.181-1.376.357-2.74.542-4.159-.284,0-.537,0-.791,0-1,0-3.293,0-3.293,0s.01-2.052.035-2.943C36.262,256.574,36.985,256.2,37.963,256.166Z" transform="translate(-15.852 -243.85)" fill="#35495e" fill-rule="evenodd"/></svg>