<svg xmlns="http://www.w3.org/2000/svg" width="39.182" height="39.182" viewBox="0 0 39.182 39.182"><path d="M67.858,249.646a16.909,16.909,0,1,1-16.909,16.908,16.928,16.928,0,0,1,16.909-16.908m0-2.683a19.591,19.591,0,1,0,19.591,19.591,19.592,19.592,0,0,0-19.591-19.591Z" transform="translate(-48.267 -246.963)" fill="#35495e"/><path d="M60.883,268.255a4.62,4.62,0,0,1-4.286-3.2,4.561,4.561,0,0,0,1.975-.06.338.338,0,0,0,.065-.03,4.6,4.6,0,0,1-2.991-2.113,4.48,4.48,0,0,1-.675-2.45,4.54,4.54,0,0,0,2.049.558,4.631,4.631,0,0,1-1.9-2.793,4.567,4.567,0,0,1,.494-3.338,13.174,13.174,0,0,0,9.5,4.813c-.027-.182-.055-.342-.074-.5a4.482,4.482,0,0,1,.674-3.011,4.429,4.429,0,0,1,3.124-2.083,4.491,4.491,0,0,1,4.032,1.284.234.234,0,0,0,.246.074,9.292,9.292,0,0,0,2.68-1.03.312.312,0,0,1,.06-.032l.032,0a4.718,4.718,0,0,1-1.973,2.507,8.823,8.823,0,0,0,2.564-.691l.019.021c-.176.231-.347.466-.529.691A9.007,9.007,0,0,1,74.3,258.46a.154.154,0,0,0-.074.144,12.6,12.6,0,0,1-.087,2.046,13.488,13.488,0,0,1-1.187,4.1,13.239,13.239,0,0,1-2.49,3.631,12.307,12.307,0,0,1-6.329,3.526,13.839,13.839,0,0,1-2.566.306,13.02,13.02,0,0,1-7.371-1.978c-.029-.017-.057-.038-.108-.071a9.316,9.316,0,0,0,4.607-.636A9.138,9.138,0,0,0,60.883,268.255Z" transform="translate(-44.864 -242.86)" fill="#35495e" fill-rule="evenodd"/></svg>