<svg id="logo-stirpe-blanco" xmlns="http://www.w3.org/2000/svg" width="102.697" height="21.523" viewBox="0 0 102.697 21.523">
  <path id="logo-negro" d="M85.153,21.027a6.769,6.769,0,0,1-3.558-3.642,1.851,1.851,0,0,1-.248-.828A5.738,5.738,0,0,1,81.1,14.9V10.679a2.231,2.231,0,0,1-.579.662,7.049,7.049,0,0,1-2.069,1.407,5.352,5.352,0,0,1-1.076.331,3.653,3.653,0,0,1-1.407.166H66.2v8.278H61.238V7.45H56.272V6.623a1.823,1.823,0,0,0-.083-.662,2.195,2.195,0,0,0-.414-.5l-.5-.331L54.7,4.967H51.224V21.523H46.342V0h8.275A5.525,5.525,0,0,1,57.1.5,6.4,6.4,0,0,1,59.251,1.9a6.474,6.474,0,0,1,1.407,2.152,14.268,14.268,0,0,1,.579,1.738V0H75.885c.5,0,.91.083,1.324.083A10.872,10.872,0,0,1,78.45.5,7.32,7.32,0,0,1,80.6,1.9a6.629,6.629,0,0,1,1.241,1.738A7.547,7.547,0,0,1,83.084,1.9,6.472,6.472,0,0,1,85.236.5,3.467,3.467,0,0,1,86.477.166,6.43,6.43,0,0,1,87.8,0h8.358a5.777,5.777,0,0,1,2.483.5A7.32,7.32,0,0,1,100.794,1.9,6.474,6.474,0,0,1,102.2,4.056a7.286,7.286,0,0,1,.414,1.242,6.693,6.693,0,0,1,.083,1.325v6.623H86.146V14.9a1.617,1.617,0,0,0,.083.579c.083.166.248.331.414.579l.5.331.579.166h14.9v4.967h-14.9a6.167,6.167,0,0,1-2.565-.5ZM6.538,13.245a6.43,6.43,0,0,1-1.324-.166,6.892,6.892,0,0,1-1.241-.331A6.567,6.567,0,0,1,1.9,11.341,9.191,9.191,0,0,1,.5,9.106,6.645,6.645,0,0,1,0,6.623,6.694,6.694,0,0,1,.083,5.3c.083-.331.166-.745.331-1.242A11.207,11.207,0,0,1,1.9,1.9,8.748,8.748,0,0,1,4.055.5,6.331,6.331,0,0,1,6.538,0H39.722V4.967H31.446V21.523H26.481V4.967H6.538a.788.788,0,0,0-.579.166,1.334,1.334,0,0,0-.579.331l-.331.5-.083.662a.727.727,0,0,0,.083.579,1.334,1.334,0,0,0,.331.579l.579.331.579.166h9.434a6.687,6.687,0,0,1,1.324.083,6.892,6.892,0,0,1,1.241.331,8.414,8.414,0,0,1,2.152,1.49,7.2,7.2,0,0,1,1.49,2.152,6.451,6.451,0,0,1,.5,2.566,6.748,6.748,0,0,1-.5,2.566,5.123,5.123,0,0,1-1.407,2.152,5.687,5.687,0,0,1-2.152,1.407,6.741,6.741,0,0,1-2.565.5H0V16.556H15.971a1.559,1.559,0,0,0,.662-.166,1.731,1.731,0,0,0,.5-.331,3.5,3.5,0,0,0,.414-.579l.083-.579c0-.248-.083-.5-.083-.662-.083-.166-.248-.331-.331-.5a1.484,1.484,0,0,0-.579-.414l-.662-.083ZM66.2,8.278H76.216l.579-.166a4.746,4.746,0,0,0,.579-.331c.083-.166.331-.248.331-.5l.248-.662-.166-.579c0-.248-.165-.414-.414-.579l-.5-.331-.662-.166H66.2ZM40.549,21.523V0h4.965V21.523ZM98.063,8.278V6.623c0-.248-.083-.414-.083-.662a2.195,2.195,0,0,0-.414-.5l-.5-.331-.579-.166H88.132a1.176,1.176,0,0,0-.5.166l-.579.414a2.625,2.625,0,0,0-.414.5l-.166.579V8.278Z"/>
</svg>
