<svg xmlns="http://www.w3.org/2000/svg" width="40" height="40.002" viewBox="0 0 40 40.002"><g transform="translate(-704.759 1249.467)"><g transform="translate(704.759 -1249.467)"><path d="M724.738-1249.366a19.9,19.9,0,0,0-19.88,19.879,19.9,19.9,0,0,0,19.88,19.88,19.9,19.9,0,0,0,19.879-19.88A19.9,19.9,0,0,0,724.738-1249.366Zm0,38.529a18.671,18.671,0,0,1-18.65-18.65,18.671,18.671,0,0,1,18.65-18.649,18.671,18.671,0,0,1,18.649,18.649A18.671,18.671,0,0,1,724.738-1210.837Z" transform="translate(-704.738 1249.489)" fill="#4043ff"/><path d="M724.759-1209.465a20.024,20.024,0,0,1-20-20,20.024,20.024,0,0,1,20-20,20.024,20.024,0,0,1,20,20A20.024,20.024,0,0,1,724.759-1209.465Zm0-39.788a19.81,19.81,0,0,0-19.787,19.787,19.809,19.809,0,0,0,19.787,19.786,19.809,19.809,0,0,0,19.787-19.786A19.81,19.81,0,0,0,724.759-1249.253Zm0,38.557a18.791,18.791,0,0,1-18.77-18.771,18.79,18.79,0,0,1,18.77-18.77,18.79,18.79,0,0,1,18.77,18.77A18.791,18.791,0,0,1,724.759-1210.7Zm0-37.326a18.578,18.578,0,0,0-18.557,18.556,18.578,18.578,0,0,0,18.557,18.557,18.578,18.578,0,0,0,18.557-18.557A18.578,18.578,0,0,0,724.759-1248.021Z" transform="translate(-704.759 1249.467)" fill="#4043ff"/></g><g transform="translate(718.347 -1238.885)"><path d="M724.556-1229.24v-6.5a6.345,6.345,0,0,1,3.56,1.509.651.651,0,0,0,.457.163.613.613,0,0,0,.623-.581c0-.232-.207-.371-.416-.533a7.331,7.331,0,0,0-4.224-1.625v-.928c0-.3-.162-.558-.464-.558s-.464.256-.464.558v.882c-2.787.069-4.9,1.857-4.9,4.2,0,2.321,1.649,3.6,4.9,4.365v6.617a7.3,7.3,0,0,1-4.5-2.113.544.544,0,0,0-.4-.163.6.6,0,0,0-.573.581.6.6,0,0,0,.252.487,9.146,9.146,0,0,0,5.221,2.252v1.834c0,.3.162.558.464.558s.464-.256.464-.558v-1.811c3.251-.092,4.992-1.834,4.992-4.295C729.548-1227.173,728.272-1228.5,724.556-1229.24Zm-.928-.232c-2.787-.72-3.738-1.695-3.738-3.274,0-1.671,1.416-3.018,3.738-3.064Zm.928,7.824v-6.409c3.251.674,3.83,1.648,3.83,3.251C728.387-1223.04,726.878-1221.693,724.556-1221.647Z" transform="translate(-718.035 1238.417)" fill="#4043ff"/><path d="M724.113-1218.091a.609.609,0,0,1-.585-.679v-1.724a9.309,9.309,0,0,1-5.178-2.271.712.712,0,0,1-.293-.579.715.715,0,0,1,.693-.7.667.667,0,0,1,.487.2,7.147,7.147,0,0,0,4.291,2.064v-6.387c-3.388-.817-4.9-2.2-4.9-4.462,0-2.359,2.1-4.2,4.9-4.319v-.765a.611.611,0,0,1,.585-.68.61.61,0,0,1,.584.68v.816a7.465,7.465,0,0,1,4.176,1.64l.053.041c.2.156.411.318.411.59a.732.732,0,0,1-.743.7.773.773,0,0,1-.534-.191,6.223,6.223,0,0,0-3.363-1.467v6.268c3.546.726,4.993,2.017,4.993,4.44,0,2.6-1.909,4.285-4.993,4.413v1.693A.609.609,0,0,1,724.113-1218.091Zm-5.364-5.712a.481.481,0,0,0-.452.459.484.484,0,0,0,.21.4,9.061,9.061,0,0,0,5.153,2.224l.11.008v1.946c0,.2.09.436.343.436s.343-.235.343-.436v-1.929l.117,0c3.052-.087,4.875-1.647,4.875-4.175,0-2.333-1.373-3.518-4.9-4.223l-.1-.019v-6.733l.132.012a6.446,6.446,0,0,1,3.626,1.536.534.534,0,0,0,.381.136.488.488,0,0,0,.5-.459c0-.145-.121-.246-.318-.4l-.052-.04a7.175,7.175,0,0,0-4.159-1.6l-.112-.009v-1.04c0-.2-.09-.436-.343-.436s-.343.235-.343.436v1l-.118,0c-2.726.068-4.782,1.822-4.782,4.08,0,2.154,1.482,3.464,4.8,4.249l.095.022v6.846l-.133-.012a7.369,7.369,0,0,1-4.567-2.146A.426.426,0,0,0,718.749-1223.8Zm5.707,2.3v-6.683l.145.03c3.3.685,3.927,1.713,3.927,3.37,0,1.884-1.624,3.233-3.95,3.28Zm.241-6.383v6.133c2.12-.087,3.59-1.321,3.59-3.033C728.288-1226.323,727.728-1227.233,724.7-1227.884Zm-.927-1.41-.152-.039c-2.72-.7-3.829-1.685-3.829-3.392,0-1.83,1.586-3.141,3.857-3.187l.124,0Zm-.242-6.371c-2.065.087-3.5,1.284-3.5,2.941,0,1.563.983,2.444,3.5,3.117Z" transform="translate(-718.056 1238.396)" fill="#4043ff"/></g><g transform="translate(708.935 -1243.666)"><path d="M720.537-1244.134a.7.7,0,0,0-.9-.4,18.471,18.471,0,0,0-11.018,11.839c-.11.368-.21.744-.3,1.114a.7.7,0,0,0,.52.836.713.713,0,0,0,.159.018.7.7,0,0,0,.678-.538c.08-.342.173-.688.275-1.028a17.061,17.061,0,0,1,10.181-10.94A.7.7,0,0,0,720.537-1244.134Z" transform="translate(-708.183 1244.702)" fill="#4043ff"/><path d="M709.022-1230.585a.822.822,0,0,1-.184-.022.82.82,0,0,1-.612-.983c.088-.379.189-.756.3-1.121a18.586,18.586,0,0,1,11.09-11.917.82.82,0,0,1,1.056.472h0a.811.811,0,0,1-.016.625.819.819,0,0,1-.455.432,16.93,16.93,0,0,0-10.109,10.86c-.1.337-.193.681-.273,1.022A.815.815,0,0,1,709.022-1230.585Zm10.884-13.854a.585.585,0,0,0-.2.038,18.346,18.346,0,0,0-10.945,11.76c-.108.359-.207.731-.295,1.107a.576.576,0,0,0,.429.691.566.566,0,0,0,.691-.429c.08-.347.173-.695.276-1.036a17.176,17.176,0,0,1,10.254-11.017.575.575,0,0,0,.321-.3.563.563,0,0,0,.011-.439h0A.575.575,0,0,0,719.906-1244.438Z" transform="translate(-708.204 1244.681)" fill="#4043ff"/></g><g transform="translate(727.799 -1228.051)"><path d="M739.965-1227.325a.7.7,0,0,0-.836.521c-.08.342-.172.687-.275,1.028a17.06,17.06,0,0,1-10.181,10.94.7.7,0,0,0-.4.9.7.7,0,0,0,.651.447.684.684,0,0,0,.248-.046,18.466,18.466,0,0,0,11.018-11.838c.11-.37.211-.744.3-1.114A.7.7,0,0,0,739.965-1227.325Z" transform="translate(-728.102 1227.463)" fill="#4043ff"/><path d="M728.942-1213.346a.822.822,0,0,1-.764-.527.8.8,0,0,1,.017-.624.815.815,0,0,1,.455-.432,16.933,16.933,0,0,0,10.108-10.861c.1-.336.194-.68.273-1.021a.824.824,0,0,1,.983-.611h0a.821.821,0,0,1,.611.983c-.091.382-.191.759-.3,1.121a18.586,18.586,0,0,1-11.09,11.917A.85.85,0,0,1,728.942-1213.346Zm10.886-13.854a.577.577,0,0,0-.561.445c-.08.345-.173.693-.276,1.035a17.182,17.182,0,0,1-10.254,11.017.572.572,0,0,0-.321.3.571.571,0,0,0-.011.44.583.583,0,0,0,.743.332,18.346,18.346,0,0,0,10.945-11.76c.108-.358.207-.73.295-1.107a.574.574,0,0,0-.428-.691A.6.6,0,0,0,739.829-1227.2Z" transform="translate(-728.124 1227.442)" fill="#4043ff"/></g></g></svg>