<svg xmlns="http://www.w3.org/2000/svg" width="35" height="35" viewBox="0 0 35 35"><g transform="translate(-1194 -23)"><circle cx="17.5" cy="17.5" r="17.5" transform="translate(1194 23)" fill="#eaf0fc"/><path d="M10.455,11.762A5.881,5.881,0,1,0,4.574,5.881,5.882,5.882,0,0,0,10.455,11.762Zm5.227,1.307h-2.25a7.109,7.109,0,0,1-5.954,0H5.227A5.227,5.227,0,0,0,0,18.3v.653a1.961,1.961,0,0,0,1.96,1.96H18.949a1.961,1.961,0,0,0,1.96-1.96V18.3A5.227,5.227,0,0,0,15.682,13.069Z" transform="translate(1201.5 29.5)" fill="none" stroke="#9da9b9" stroke-width="1.5"/></g></svg>