<svg xmlns="http://www.w3.org/2000/svg" width="35" height="35" viewBox="0 0 35 35"><g transform="translate(-269.398 -22.398)"><path d="M17.5,0A17.5,17.5,0,1,1,0,17.5,17.5,17.5,0,0,1,17.5,0Z" transform="translate(269.398 22.398)" fill="#eaf0fc"/><path d="M-41.137-64.435l-3.625-3.625a9.06,9.06,0,0,0,.878-3.882A9.068,9.068,0,0,0-52.942-81,9.068,9.068,0,0,0-62-71.942a9.068,9.068,0,0,0,9.058,9.058,9.06,9.06,0,0,0,3.882-.878l3.625,3.625a3.03,3.03,0,0,0,2.149.889,3.031,3.031,0,0,0,2.15-.889A3.044,3.044,0,0,0-41.137-64.435Zm-19.051-7.507a7.254,7.254,0,0,1,7.245-7.245A7.254,7.254,0,0,1-45.7-71.942a7.24,7.24,0,0,1-.96,3.6h0a7.282,7.282,0,0,1-2.682,2.682,7.242,7.242,0,0,1-3.6.96A7.254,7.254,0,0,1-60.187-71.942Zm17.769,10.523a1.229,1.229,0,0,1-1.735,0l-3.311-3.311.013-.011c.108-.082.212-.17.315-.257.051-.043.1-.083.154-.126a9.026,9.026,0,0,0,.858-.858c.038-.043.072-.089.109-.132.093-.111.187-.222.275-.338l.01-.012,3.312,3.311A1.228,1.228,0,0,1-42.418-61.419Z" transform="translate(338.522 110.522)" fill="#9da9b9"/></g></svg>