<svg xmlns="http://www.w3.org/2000/svg" width="40" height="38.812" viewBox="0 0 40 38.812"><g transform="translate(4546.76 3531.369)"><path d="M-4545.524-3512.417h3.758a.61.61,0,0,0,.611-.61.611.611,0,0,0-.611-.61h-3.758a17.138,17.138,0,0,1,16.495-16.5v3.759a.61.61,0,0,0,.611.61.61.61,0,0,0,.61-.61v-3.756a17.156,17.156,0,0,1,12.543,6.155l-2.937-.173a.605.605,0,0,0-.645.573.61.61,0,0,0,.574.645l4.306.253h.036a.609.609,0,0,0,.424-.171.61.61,0,0,0,.186-.454l-.1-4.248a.61.61,0,0,0-.61-.6h-.015a.61.61,0,0,0-.6.625l.059,2.462a18.379,18.379,0,0,0-13.834-6.313,18.363,18.363,0,0,0-18.341,18.342h0a18.233,18.233,0,0,0,1.374,6.976.611.611,0,0,0,.564.378.609.609,0,0,0,.232-.046.61.61,0,0,0,.332-.8A16.98,16.98,0,0,1-4545.524-3512.417Z" transform="translate(0 0)" fill="#4043ff"/><path d="M-4503.86-3498.69a.61.61,0,0,0-.863.02l-4.512,4.723a2.73,2.73,0,0,0-1.969-.837,2.723,2.723,0,0,0-1.4.389l-8.389-6.637a.61.61,0,0,0-.857.1.61.61,0,0,0,.1.857l8.255,6.531a2.724,2.724,0,0,0-.452,1.5,2.748,2.748,0,0,0,2.745,2.745,2.748,2.748,0,0,0,2.745-2.745,2.726,2.726,0,0,0-.126-.82l4.744-4.967A.61.61,0,0,0-4503.86-3498.69Zm-7.343,8.174a1.525,1.525,0,0,1-1.523-1.524,1.525,1.525,0,0,1,1.523-1.524,1.526,1.526,0,0,1,1.523,1.524A1.526,1.526,0,0,1-4511.2-3490.517Z" transform="translate(-17.333 -21.098)" fill="#4043ff"/><path d="M-4503.4-3486.537a19.344,19.344,0,0,0,.107-2,18.376,18.376,0,0,0-1.46-7.218.6.6,0,0,0-.794-.321.613.613,0,0,0-.317.8,17.157,17.157,0,0,1,1.363,6.737c0,.376-.014.766-.039,1.148a10.436,10.436,0,0,0-5.7-1.689,10.634,10.634,0,0,0-10.572,10.67,10.677,10.677,0,0,0,2.367,6.718,16.878,16.878,0,0,1-3.02.272,16.92,16.92,0,0,1-13.116-6.274l2.878.269a.6.6,0,0,0,.658-.551.608.608,0,0,0-.547-.664l-4.256-.4a.6.6,0,0,0-.46.154.613.613,0,0,0-.2.447l-.044,4.633a.608.608,0,0,0,.6.617h.006a.608.608,0,0,0,.6-.6l.028-2.887a18.121,18.121,0,0,0,13.85,6.48,18.111,18.111,0,0,0,3.981-.451,10.479,10.479,0,0,0,7.244,2.91,10.634,10.634,0,0,0,10.573-10.67A10.691,10.691,0,0,0-4503.4-3486.537Zm-6.839,17.578a9.417,9.417,0,0,1-9.363-9.45,9.417,9.417,0,0,1,9.363-9.45,9.418,9.418,0,0,1,9.364,9.45A9.418,9.418,0,0,1-4510.244-3468.958Z" transform="translate(-7.09 -24.82)" fill="#4043ff"/><path d="M-4452.613-3447a.611.611,0,0,0-.858.095l-3.891,4.854-2.126-2.06a.61.61,0,0,0-.863.014.61.61,0,0,0,.014.863l2.235,2.165a1.087,1.087,0,0,0,.754.3l.068,0a1.086,1.086,0,0,0,.777-.4l3.984-4.971A.611.611,0,0,0-4452.613-3447Z" transform="translate(-60.26 -58.787)" fill="#4043ff"/></g></svg>