<svg xmlns="http://www.w3.org/2000/svg" width="40" height="37.03" viewBox="0 0 40 37.03"><g transform="translate(4578.973 3786.369)"><path d="M-4540.909-3767.794h-.6v-3.575a4.876,4.876,0,0,0-4.874-4.869h-.064a2.481,2.481,0,0,0,.374-1.02,2.479,2.479,0,0,0-.5-1.847l-4.228-5.51a2.492,2.492,0,0,0-1.658-.957,2.479,2.479,0,0,0-1.848.5l-2.383,1.829-1.649-2.146a2.508,2.508,0,0,0-3.507-.46l-12.548,9.63a4.873,4.873,0,0,0-4.58,4.854v17.161c0,.019,0,.038,0,.057s0,.019,0,.029a.639.639,0,0,0,.009.087,4.874,4.874,0,0,0,4.864,4.7h27.714a4.874,4.874,0,0,0,4.865-4.7.727.727,0,0,0,.009-.087c0-.01,0-.019,0-.029s0-.038,0-.057v-3.577h.6a1.938,1.938,0,0,0,1.936-1.935v-6.139A1.938,1.938,0,0,0-4540.909-3767.794ZM-4553.48-3784a1.134,1.134,0,0,1,.846-.227,1.141,1.141,0,0,1,.76.438l4.228,5.51a1.13,1.13,0,0,1,.226.844,1.134,1.134,0,0,1-.438.758l-.572.439H-4563.6Zm-7.54-.777a1.15,1.15,0,0,1,1.608.211l1.648,2.145-8.059,6.184h-6.325Zm-13.08,9.9h27.714a3.522,3.522,0,0,1,3.451,2.837h-34.616A3.521,3.521,0,0,1-4574.1-3774.884Zm4.685,7.529a3.644,3.644,0,0,0-1.459.529,2.283,2.283,0,0,0-1.1,1.891c-.033,1.651,1.482,2.356,3.2,3,1.706.57,1.932,1.129,1.921,1.648a.859.859,0,0,1-.462.739,2.682,2.682,0,0,1-1.417.327h0l-.055,0a1.968,1.968,0,0,1-1.851-1.051.677.677,0,0,0-.871-.4.677.677,0,0,0-.4.87,3.152,3.152,0,0,0,2.5,1.878v3.125h-8.2v-15.893h8.2Zm23.029,16.66H-4574.1a3.523,3.523,0,0,1-3.432-2.75h34.578A3.521,3.521,0,0,1-4546.386-3750.694Zm3.518-4.1h-25.19v-3.111a3.646,3.646,0,0,0,1.457-.49,2.2,2.2,0,0,0,1.1-1.862c.035-1.769-1.5-2.512-2.824-2.953-1.749-.655-2.307-1.066-2.294-1.692a.946.946,0,0,1,.487-.784,2.575,2.575,0,0,1,1.475-.358,2.05,2.05,0,0,1,1.8.939.678.678,0,0,0,.91.3.678.678,0,0,0,.3-.91,3.249,3.249,0,0,0-2.414-1.628v-3.344h25.192v2.9h-7.573a5.01,5.01,0,0,0-5,5.005,5.01,5.01,0,0,0,5,5h7.573Zm2.54-4.921a.582.582,0,0,1-.581.58h-9.533a3.654,3.654,0,0,1-3.65-3.65,3.654,3.654,0,0,1,3.65-3.65h8.234l.017,0,.017,0h1.265a.581.581,0,0,1,.581.581Z" fill="#4043ff"/><path d="M-4497.658-3722.567a1.967,1.967,0,0,0-1.965,1.965,1.967,1.967,0,0,0,1.965,1.965,1.967,1.967,0,0,0,1.965-1.965A1.967,1.967,0,0,0-4497.658-3722.567Zm0,2.575a.611.611,0,0,1-.61-.61.611.611,0,0,1,.61-.61.61.61,0,0,1,.609.61A.611.611,0,0,1-4497.658-3719.992Z" transform="translate(-52.468 -42.187)" fill="#4043ff"/></g></svg>